{
    "patcher": {
        "fileversion": 1,
        "appversion": {
            "major": 9,
            "minor": 1,
            "revision": 1,
            "architecture": "x64",
            "modernui": 1
        },
        "classnamespace": "box",
        "rect": [ 34.0, 87.0, 2021.0, 1196.0 ],
        "integercoordinates": 1,
        "boxes": [
            {
                "box": {
                    "id": "obj-4",
                    "lastchannelcount": 0,
                    "maxclass": "live.gain~",
                    "numinlets": 2,
                    "numoutlets": 5,
                    "outlettype": [ "signal", "signal", "", "float", "list" ],
                    "parameter_enable": 1,
                    "patching_rect": [ 256.0, 215.0, 48.0, 136.0 ],
                    "saved_attribute_attributes": {
                        "valueof": {
                            "parameter_longname": "live.gain~[1]",
                            "parameter_mmax": 6.0,
                            "parameter_mmin": -70.0,
                            "parameter_modmode": 3,
                            "parameter_shortname": "live.gain~",
                            "parameter_type": 0,
                            "parameter_unitstyle": 4
                        }
                    },
                    "varname": "live.gain~[1]"
                }
            },
            {
                "box": {
                    "id": "obj-2",
                    "maxclass": "newobj",
                    "numinlets": 1,
                    "numoutlets": 2,
                    "outlettype": [ "signal", "signal" ],
                    "patcher": {
                        "fileversion": 1,
                        "appversion": {
                            "major": 9,
                            "minor": 1,
                            "revision": 1,
                            "architecture": "x64",
                            "modernui": 1
                        },
                        "classnamespace": "dsp.gen",
                        "rect": [ 563.0, 161.0, 1005.0, 482.0 ],
                        "integercoordinates": 1,
                        "boxes": [
                            {
                                "box": {
                                    "id": "obj-6",
                                    "maxclass": "newobj",
                                    "numinlets": 1,
                                    "numoutlets": 0,
                                    "patching_rect": [ 902.0, 402.0, 35.0, 22.0 ],
                                    "text": "out 2"
                                }
                            },
                            {
                                "box": {
                                    "code": "Param on_off(0, min=0, max=1);\r\nParam slices(8, min=4, max=16);\r\nParam buff_sr(44100);\r\nBuffer sf;\r\n\r\nbuffer_len = dim(sf);\r\ncounter_inc = buff_sr / samplerate;\r\nslices_round = round(slices, 1);\r\nslice_size = buffer_len / slices_round;\r\nplay_status = (on_off == 0);\r\n\r\n//return values (outlets).........operator args (inlets)\r\n//unused return values: _\r\ncounter_index, counter_trig, _ = counter(counter_inc, play_status, slice_size);\r\nrand_slice = floor(abs(noise()) * slices_round);\r\ncurrent_slice = latch(rand_slice, counter_trig);\r\ncurrent_index = counter_index + (slice_size * current_slice);\r\n\r\npeek_L, peek_R, _ = peek(sf, current_index, 0, interp=\"linear\", boundmode=\"wrap\", channels=2, channelmode=\"wrap\");\r\n\r\nout1, out2 = peek_L, peek_R;",
                                    "fontface": 0,
                                    "fontname": "<Monospaced>",
                                    "fontsize": 12.0,
                                    "id": "obj-5",
                                    "maxclass": "codebox",
                                    "numinlets": 1,
                                    "numoutlets": 2,
                                    "outlettype": [ "", "" ],
                                    "patching_rect": [ 16.0, 43.0, 905.0, 342.0 ]
                                }
                            },
                            {
                                "box": {
                                    "id": "obj-1",
                                    "maxclass": "newobj",
                                    "numinlets": 0,
                                    "numoutlets": 1,
                                    "outlettype": [ "" ],
                                    "patching_rect": [ 16.0, 5.0, 28.0, 22.0 ],
                                    "text": "in 1"
                                }
                            },
                            {
                                "box": {
                                    "id": "obj-4",
                                    "maxclass": "newobj",
                                    "numinlets": 1,
                                    "numoutlets": 0,
                                    "patching_rect": [ 16.0, 402.0, 35.0, 22.0 ],
                                    "text": "out 1"
                                }
                            }
                        ],
                        "lines": [
                            {
                                "patchline": {
                                    "destination": [ "obj-4", 0 ],
                                    "source": [ "obj-5", 0 ]
                                }
                            },
                            {
                                "patchline": {
                                    "destination": [ "obj-6", 0 ],
                                    "source": [ "obj-5", 1 ]
                                }
                            }
                        ]
                    },
                    "patching_rect": [ 256.0, 165.0, 143.0, 22.0 ],
                    "text": "gen~ @t codebox_slicing"
                }
            },
            {
                "box": {
                    "id": "obj-28",
                    "maxclass": "message",
                    "numinlets": 2,
                    "numoutlets": 1,
                    "outlettype": [ "" ],
                    "patching_rect": [ 256.0, 108.0, 62.0, 22.0 ],
                    "text": "buff_sr $1"
                }
            },
            {
                "box": {
                    "id": "obj-26",
                    "maxclass": "newobj",
                    "numinlets": 1,
                    "numoutlets": 10,
                    "outlettype": [ "float", "list", "float", "float", "float", "float", "float", "", "int", "" ],
                    "patching_rect": [ 256.0, 70.0, 114.0, 22.0 ],
                    "text": "info~ sf"
                }
            },
            {
                "box": {
                    "id": "obj-21",
                    "maxclass": "toggle",
                    "numinlets": 1,
                    "numoutlets": 1,
                    "outlettype": [ "int" ],
                    "parameter_enable": 0,
                    "patching_rect": [ 140.0, 35.0, 24.0, 24.0 ]
                }
            },
            {
                "box": {
                    "id": "obj-19",
                    "maxclass": "message",
                    "numinlets": 2,
                    "numoutlets": 1,
                    "outlettype": [ "" ],
                    "patching_rect": [ 140.0, 108.0, 58.0, 22.0 ],
                    "text": "on_off $1"
                }
            },
            {
                "box": {
                    "id": "obj-17",
                    "maxclass": "message",
                    "numinlets": 2,
                    "numoutlets": 1,
                    "outlettype": [ "" ],
                    "patching_rect": [ 9.0, 108.0, 50.0, 22.0 ],
                    "text": "44100."
                }
            },
            {
                "box": {
                    "id": "obj-15",
                    "maxclass": "newobj",
                    "numinlets": 1,
                    "numoutlets": 4,
                    "outlettype": [ "int", "float", "int", "int" ],
                    "patching_rect": [ 26.0, 66.0, 61.0, 22.0 ],
                    "text": "dspstate~"
                }
            },
            {
                "box": {
                    "id": "obj-14",
                    "maxclass": "newobj",
                    "numinlets": 1,
                    "numoutlets": 1,
                    "outlettype": [ "bang" ],
                    "patching_rect": [ 26.0, 31.0, 58.0, 22.0 ],
                    "text": "loadbang"
                }
            },
            {
                "box": {
                    "id": "obj-13",
                    "maxclass": "newobj",
                    "numinlets": 1,
                    "numoutlets": 2,
                    "outlettype": [ "float", "bang" ],
                    "patching_rect": [ 216.0, 35.0, 59.0, 22.0 ],
                    "text": "buffer~ sf"
                }
            },
            {
                "box": {
                    "id": "obj-12",
                    "maxclass": "ezdac~",
                    "numinlets": 2,
                    "numoutlets": 0,
                    "patching_rect": [ 256.0, 377.0, 45.0, 45.0 ]
                }
            },
            {
                "box": {
                    "attr": "slices",
                    "id": "obj-5",
                    "maxclass": "attrui",
                    "numinlets": 1,
                    "numoutlets": 1,
                    "outlettype": [ "" ],
                    "parameter_enable": 0,
                    "patching_rect": [ 414.0, 70.0, 150.0, 22.0 ]
                }
            }
        ],
        "lines": [
            {
                "patchline": {
                    "destination": [ "obj-26", 0 ],
                    "source": [ "obj-13", 1 ]
                }
            },
            {
                "patchline": {
                    "destination": [ "obj-15", 0 ],
                    "source": [ "obj-14", 0 ]
                }
            },
            {
                "patchline": {
                    "destination": [ "obj-17", 1 ],
                    "source": [ "obj-15", 1 ]
                }
            },
            {
                "patchline": {
                    "destination": [ "obj-2", 0 ],
                    "source": [ "obj-19", 0 ]
                }
            },
            {
                "patchline": {
                    "destination": [ "obj-4", 1 ],
                    "source": [ "obj-2", 1 ]
                }
            },
            {
                "patchline": {
                    "destination": [ "obj-4", 0 ],
                    "source": [ "obj-2", 0 ]
                }
            },
            {
                "patchline": {
                    "destination": [ "obj-19", 0 ],
                    "source": [ "obj-21", 0 ]
                }
            },
            {
                "patchline": {
                    "destination": [ "obj-28", 0 ],
                    "source": [ "obj-26", 0 ]
                }
            },
            {
                "patchline": {
                    "destination": [ "obj-2", 0 ],
                    "source": [ "obj-28", 0 ]
                }
            },
            {
                "patchline": {
                    "destination": [ "obj-12", 1 ],
                    "source": [ "obj-4", 1 ]
                }
            },
            {
                "patchline": {
                    "destination": [ "obj-12", 0 ],
                    "source": [ "obj-4", 0 ]
                }
            },
            {
                "patchline": {
                    "destination": [ "obj-2", 0 ],
                    "source": [ "obj-5", 0 ]
                }
            }
        ],
        "parameters": {
            "obj-4": [ "live.gain~[1]", "live.gain~", 0 ],
            "parameterbanks": {
                "0": {
                    "index": 0,
                    "name": "",
                    "parameters": [ "-", "-", "-", "-", "-", "-", "-", "-" ],
                    "buttons": [ "-", "-", "-", "-", "-", "-", "-", "-" ]
                }
            },
            "inherited_shortname": 1
        },
        "autosave": 0,
        "oscsendudpport": 57121
    }
}